<?xml version="1.0" standalone="no"?> <!DOCTYPE svg PUBLIC "-//W3C//DTD SVG 1.0//EN" "http://www.w3.org/TR/2001/REC-SVG-20010904/DTD/svg10.dtd" > <svg xmlns="http://www.w3.org/2000/svg" width="100%" height="100%">
<defs >
<font id="byekan" horiz-adv-x="0" ><font-face
    font-family="B Yekan"
    units-per-em="2048"
    panose-1="0 0 4 0 0 0 0 0 0 0"
    ascent="2090"
    descent="-1050"
    alphabetic="0" />
<missing-glyph horiz-adv-x="1024" d="M128 0V2090H896V0H128ZM256 128H768V1962H256V128Z" />
<glyph unicode=" " glyph-name="space" horiz-adv-x="469" />
<glyph unicode="!" glyph-name="exclam" horiz-adv-x="469" d="M326 759Q326 747 314 623L286 349H191L149 759V1154H326V759ZM371 120Q371 0 234 0Q109 0 109 120Q109 230 244 230Q371 230 371 120Z" />
<glyph unicode="%" glyph-name="percent" horiz-adv-x="1471" d="M1401 45Q1401 -64 1309 -143Q1222 -219 1111 -219Q1003 -219 916 -139Q826 -58 826 50Q826 158 917 247T1118 336Q1231 336 1316 248T1401 45ZM1278 56Q1278 116 1228 165T1118 214Q1052 214 1001
163T949 45Q949 -28 1025 -76Q1068 -104 1118 -104Q1179 -104 1228 -55T1278 56ZM1129 930L483 -244H309L949 930H1129ZM643 658Q643 548 548 467Q458 390 346 390Q236 390 152 471T68 663Q68 774 156 857T356 941Q464 941 553 853T643 658ZM516 664Q516 726 463
773T346 820Q281 820 235 769T189 653Q189 589 243 546Q293 505 358 505Q422 505 469 552T516 664Z" />
<glyph unicode="(" glyph-name="parenleft" horiz-adv-x="721" d="M643 1399Q481 1086 414 888Q320 611 320 338Q320 -8 394 -281Q467 -547 640 -854H541Q336 -559 244 -315Q135 -29 135 290Q135 589 255 875Q337 1072 548 1399H643Z" />
<glyph unicode=")" glyph-name="parenright" horiz-adv-x="721" d="M584 266Q584 -41 466 -325Q384 -524 171 -854H76Q399 -255 399 208Q399 579 326 829Q268 1028 79 1399H178Q382 1096 473 864Q584 578 584 266Z" />
<glyph unicode="*" glyph-name="asterisk" horiz-adv-x="680" d="M610 113L590 73L354 205V-68H309V205L74 70L48 109L284 244L48 381L73 424L309 290V561H354V290L588 426L610 385L376 248L610 113ZM376 248L354 290H309L284 244L309 205H354L376 248Z" />
<glyph unicode="+" glyph-name="plus" horiz-adv-x="1275" d="M1191 239H725V-225H554V239H90V415H554V879H725V415H1191V239Z" />
<glyph unicode="," glyph-name="comma" horiz-adv-x="264" d="M4 34Q4 144 140 144Q222 144 249 101Q268 71 268 -16Q268 -178 243 -244Q200 -355 66 -368V-303Q145 -295 173 -228Q187 -190 191 -90Q4 -90 4 34Z" />
<glyph unicode="-" glyph-name="hyphen" horiz-adv-x="1149" d="M1076 239H95V416H1076V239Z" />
<glyph unicode="." glyph-name="period" horiz-adv-x="564" d="M416 96Q416 -23 279 -23Q151 -23 151 96Q151 208 289 208Q416 208 416 96Z" />
<glyph unicode="/" glyph-name="slash" horiz-adv-x="971" d="M904 930L256 -244H84L724 930H904Z" />
<glyph unicode="0" glyph-name="zero" horiz-adv-x="1210" d="M926 318Q926 200 826 112T606 23Q482 23 383 111T284 323Q284 449 384 546T611 644Q733 644 829 542T926 318ZM781 323Q781 394 727 447T601 500Q530 500 477 444T424 316Q424 247 484 198Q540 153
611 153Q678 153 729 204T781 323Z" />
<glyph unicode="1" glyph-name="one" horiz-adv-x="1210" d="M736 -200H561V351Q561 627 475 913L646 969L708 728Q709 723 716 663Q736 502 736 351V-200Z" />
<glyph unicode="2" glyph-name="two" horiz-adv-x="1210" d="M958 641Q958 541 869 471Q786 405 684 405Q607 405 516 464L519 -200H338V325Q338 682 253 913L426 969L498 674Q525 561 631 561Q705 561 746 620Q775 662 770 703L741 918Q796 936 908 971Q958 725
958 641Z" />
<glyph unicode="3" glyph-name="three" horiz-adv-x="1210" d="M1161 654Q1161 556 1079 487Q1001 421 901 421Q790 421 680 545Q680 415 491 415Q397 415 314 461L315 -200H140V325Q140 659 50 913L228 969L295 674Q321 561 435 561Q493 561 530 599Q581 650
573 703L539 918L708 980Q749 767 749 676Q749 665 746 613Q792 556 861 556Q913 556 951 593T990 683Q990 693 989 703L960 918L1126 969L1160 678Q1161 667 1161 654Z" />
<glyph unicode="4" glyph-name="four" horiz-adv-x="1210" d="M1075 466Q881 376 705 376Q555 376 394 446L396 -200H221V338Q221 602 135 913L304 969Q355 781 383 618L475 575Q475 978 803 978Q905 978 1020 921L960 766Q886 820 809 820Q737 820 683 772T629
651Q629 534 764 534Q866 534 1019 610L1075 466Z" />
<glyph unicode="5" glyph-name="five" horiz-adv-x="1210" d="M1163 74Q1163 -71 1057 -159Q958 -241 810 -241Q677 -241 586 -171Q460 -244 341 -244Q205 -244 122 -136Q48 -37 48 104Q48 324 225 543L421 784L351 834L466 971Q1163 451 1163 74ZM974 118Q974
330 554 678Q236 344 236 121Q236 -48 388 -48Q527 -48 528 110Q526 121 519 178H696Q708 154 708 109Q708 24 689 -11Q742 -45 806 -45Q974 -45 974 118Z" />
<glyph unicode="6" glyph-name="six" horiz-adv-x="1210" d="M971 483Q899 419 831 336L680 151Q563 8 419 -245L261 -149Q346 14 588 331Q431 331 337 414Q239 500 239 655Q239 796 327 889T556 983Q655 983 781 918L724 758Q649 798 579 798Q512 798 466 756T419
649Q419 505 583 505Q694 505 826 590L971 483Z" />
<glyph unicode="7" glyph-name="seven" horiz-adv-x="1210" d="M1109 893L960 638Q888 515 831 374Q741 152 674 -200H534Q489 106 379 370Q295 572 104 890L261 971Q427 688 494 509Q500 493 528 390L598 131L618 129Q691 492 811 710L955 971Q1025 934 1109 893Z" />
<glyph unicode="8" glyph-name="eight" horiz-adv-x="1210" d="M1109 -113Q1026 -150 953 -194Q788 88 721 270Q709 302 683 404L618 649L598 651Q561 487 494 273Q442 110 259 -194Q171 -145 101 -110Q299 222 378 410Q480 654 536 980L676 978Q749 532 938 185Q994
81 1109 -113Z" />
<glyph unicode="9" glyph-name="nine" horiz-adv-x="1210" d="M933 -200H758V415Q649 379 556 379Q427 379 353 450T279 649Q279 789 364 884Q452 983 590 983Q675 983 775 924Q933 831 933 385V-200ZM739 599Q732 645 713 733Q689 797 640 809Q636 810 581 820Q513
820 473 772T433 655Q433 536 554 536Q630 536 739 599Z" />
<glyph unicode=":" glyph-name="colon" horiz-adv-x="564" d="M426 543Q426 424 290 424Q160 424 160 543Q160 654 300 654Q426 654 426 543ZM428 120Q428 0 290 0Q236 0 200 33T163 120Q163 230 303 230Q428 230 428 120Z" />
<glyph unicode="=" glyph-name="equal" horiz-adv-x="1225" d="M1110 374H121V550H1110V374ZM1110 0H121V176H1110V0Z" />
<glyph unicode="[" glyph-name="bracketleft" horiz-adv-x="770" d="M696 -834H159L161 1769H696V1600H346L343 -665H696V-834Z" />
<glyph unicode="]" glyph-name="bracketright" horiz-adv-x="783" d="M157 -845H693L691 1760H157V1591H507L509 -676H157V-845Z" />
<glyph unicode="{" glyph-name="braceleft" horiz-adv-x="1050" d="M847 -705Q635 -666 502 -528Q361 -382 361 -172Q361 -84 397 71Q425 193 425 225Q425 358 326 450Q234 534 97 550V601Q425 673 425 903Q425 961 402 1069Q366 1238 366 1328Q366 1539 503 1684Q635
1822 847 1855V1802Q717 1784 632 1702Q540 1614 540 1487Q540 1426 558 1331Q599 1112 599 1041Q599 732 207 578Q594 419 594 97Q594 29 558 -149Q535 -263 535 -333Q535 -582 847 -653V-705Z" />
<glyph unicode="}" glyph-name="braceright" horiz-adv-x="970" d="M131 -700Q342 -663 475 -525Q614 -379 614 -170Q614 -76 581 74Q553 200 553 227Q553 361 653 453Q745 537 881 552V604Q553 675 553 906Q553 976 573 1072Q612 1252 612 1331Q612 1542 474
1686Q343 1824 131 1861V1804Q263 1783 346 1704Q435 1619 435 1492Q435 1415 420 1333Q376 1100 376 1044Q376 737 771 583Q381 422 381 102Q381 38 420 -144Q443 -253 443 -331Q443 -579 131 -651V-700Z" />
</font>
</defs>
</svg>
